<svg width="15" height="15" viewBox="0 0 15 15" fill="none" xmlns="http://www.w3.org/2000/svg">
    <path d="M3.75 0.46875C3.75 0.34443 3.70061 0.225201 3.61271 0.137294C3.5248 0.049386 3.40557 0 3.28125 0C3.15693 0 3.0377 0.049386 2.94979 0.137294C2.86189 0.225201 2.8125 0.34443 2.8125 0.46875V0.9375H1.875C1.37772 0.9375 0.900806 1.13504 0.549175 1.48667C0.197544 1.83831 0 2.31522 0 2.8125L0 3.75H15V2.8125C15 2.31522 14.8025 1.83831 14.4508 1.48667C14.0992 1.13504 13.6223 0.9375 13.125 0.9375H12.1875V0.46875C12.1875 0.34443 12.1381 0.225201 12.0502 0.137294C11.9623 0.049386 11.8431 0 11.7188 0C11.5944 0 11.4752 0.049386 11.3873 0.137294C11.2994 0.225201 11.25 0.34443 11.25 0.46875V0.9375H3.75V0.46875ZM8.81437 9.60563C9.40031 9.60563 9.92438 9.15187 9.92438 8.49938C9.92438 7.71938 9.43031 7.34625 8.83687 7.34625C8.2875 7.34625 7.74188 7.70906 7.74188 8.48062C7.74188 9.24656 8.25094 9.60563 8.81437 9.60563Z" fill="#2F49D0" />
    <path d="M15 13.125V4.6875H0V13.125C0 13.6223 0.197544 14.0992 0.549175 14.4508C0.900806 14.8025 1.37772 15 1.875 15H13.125C13.6223 15 14.0992 14.8025 14.4508 14.4508C14.8025 14.0992 15 13.6223 15 13.125ZM8.7525 11.9906C7.71188 11.9906 7.2 11.2716 7.15594 10.6716H7.79625C7.83656 11.0184 8.15906 11.4403 8.78156 11.4403C9.57281 11.4403 10.0013 10.6453 10.005 9.41156H9.97969C9.83625 9.79969 9.3825 10.1522 8.68313 10.1522C7.88438 10.1522 7.11188 9.58031 7.11188 8.49281C7.11188 7.42688 7.92844 6.79688 8.79656 6.79688C9.89531 6.79688 10.6275 7.485 10.6275 9.29813C10.6275 10.9903 9.93188 11.9897 8.7525 11.9897V11.9906ZM6.04313 6.89531V11.8941H5.40938V7.57406H5.39812C5.12625 7.72031 4.57031 8.06156 4.21875 8.3025V7.65C4.61329 7.37357 5.02437 7.12154 5.44969 6.89531H6.04219H6.04313Z" fill="#2F49D0" />
</svg>
