<svg width="35" height="34" viewBox="0 0 35 34" fill="none" xmlns="http://www.w3.org/2000/svg">
    <path d="M17.4893 15.887L17.4811 15.8897C17.4155 15.9136 17.3963 15.9933 17.4401 16.0464L17.7135 16.3678L17.8994 16.2138L17.6014 15.9109C17.5871 15.8969 17.5689 15.8872 17.549 15.8829C17.5291 15.8787 17.5084 15.8801 17.4893 15.887Z" fill="white"/>
    <path d="M13.0512 20.9738L12.332 20.6098C12.2691 20.578 12.1953 20.5594 12.1242 20.5594H11.9164C11.8976 20.5589 11.8796 20.552 11.8656 20.5398C11.8516 20.5277 11.8424 20.5111 11.8398 20.493C11.818 20.2698 11.6238 20.0972 11.3941 20.0972H11.3285C11.1891 20.0972 11.0578 20.0334 10.973 19.9245L10.8746 19.797C10.798 19.6988 10.6832 19.6377 10.5574 19.627L10.0215 19.5819C10.0084 19.5815 9.99589 19.5768 9.98594 19.5686L9.89844 19.5102C9.87383 19.4942 9.84375 19.4916 9.81914 19.5075L9.43633 19.7173C9.36797 19.7545 9.29414 19.7731 9.21484 19.7731H8.82109C8.80742 19.7731 8.79648 19.7705 8.78555 19.7652C8.7418 19.7413 8.64062 19.6669 8.64062 19.5022V19.2817C8.64062 19.272 8.63864 19.2623 8.6348 19.2533C8.63095 19.2442 8.62531 19.236 8.6182 19.2291C8.61109 19.2222 8.60265 19.2167 8.59336 19.213C8.58407 19.2093 8.57412 19.2073 8.56406 19.2073H8.31523C8.30185 19.2072 8.28874 19.2037 8.27719 19.1971C8.26565 19.1906 8.25608 19.1812 8.24944 19.1699C8.2428 19.1586 8.23932 19.1458 8.23935 19.1328C8.23938 19.1198 8.24292 19.107 8.24961 19.0958L8.36719 18.8966C8.37266 18.8859 8.37812 18.8727 8.37812 18.8594V18.6841C8.37812 18.6643 8.37006 18.6454 8.3557 18.6315C8.34134 18.6175 8.32187 18.6097 8.30156 18.6097H8.16484C8.14023 18.6097 8.11562 18.623 8.10195 18.6442L8.02539 18.7611C7.94336 18.8859 7.80117 18.9603 7.64805 18.9603H7.53867C7.53867 18.9603 7.36094 18.9284 7.36094 18.7452V18.0891V18.0784C7.36367 18.0572 7.38008 17.9908 7.45391 17.9456C7.51953 17.9058 7.67266 17.8261 7.74922 17.7863C7.77656 17.773 7.81211 17.7756 7.83672 17.7969L7.98164 17.927C7.99531 17.9403 8.01172 17.9456 8.03086 17.9456C8.07734 17.9456 8.16211 17.9483 8.17852 17.9403C8.20039 17.9297 8.1457 17.8341 8.27695 17.7942C8.41094 17.757 8.49844 17.8739 8.49844 17.8739L8.8375 18.2644C8.86211 18.2936 8.90586 18.2989 8.93867 18.2777L8.98789 18.2458C9.0207 18.2245 9.03164 18.182 9.0125 18.1475L9.00703 18.1369C8.89766 17.9536 8.93867 17.7198 9.10547 17.5844L9.38711 17.3533C9.38711 17.3533 9.41992 17.332 9.43633 17.2125C9.44727 17.1408 9.46641 17.0345 9.48008 16.9602C9.51016 16.9123 9.53477 16.8672 9.56484 16.8194L10.1719 16.3227C10.2074 16.2934 10.2594 16.3014 10.284 16.3386C10.3141 16.3811 10.3633 16.4289 10.4262 16.4262C10.5219 16.4209 10.7598 16.2961 10.8527 16.243C10.8645 16.2367 10.8742 16.2275 10.881 16.2162C10.8877 16.205 10.8912 16.1922 10.891 16.1792V16.0863L10.5984 16.1447C10.5574 16.1527 10.5164 16.1261 10.5082 16.0836L10.4754 15.8977C10.4723 15.8807 10.4633 15.8653 10.4498 15.8542C10.4363 15.843 10.4193 15.8368 10.4016 15.8366L10.109 15.8684L10.1445 15.7834C10.1555 15.7542 10.1828 15.7356 10.2156 15.7303L10.9375 15.6559C11.0031 15.6294 11.1016 15.5922 11.1672 15.5656L11.3121 15.4567C11.3477 15.4302 11.3504 15.3797 11.3203 15.3478L10.5082 14.5403C10.4969 14.5295 10.4826 14.5221 10.467 14.5193C10.4514 14.5164 10.4353 14.5182 10.4207 14.5244L10.1773 14.6359C10.1527 14.6466 10.1227 14.6439 10.1008 14.6306L9.42812 14.1711C9.42023 14.1655 9.41127 14.1615 9.40177 14.1593C9.39228 14.1571 9.38242 14.1567 9.37277 14.1582C9.36312 14.1596 9.35387 14.1629 9.34554 14.1679C9.33721 14.1729 9.32996 14.1794 9.32422 14.187L9.22031 14.3252C9.21211 14.3358 9.20664 14.3491 9.20664 14.365L9.1875 14.7077C9.1875 14.7289 9.19297 14.7475 9.20938 14.7634L9.30781 14.8617C9.34062 14.8936 9.33516 14.9467 9.29688 14.9733L9.15195 15.0742C9.14222 15.0811 9.13096 15.0856 9.11908 15.0875C9.1072 15.0893 9.09505 15.0884 9.08359 15.0848L8.75547 15.138C8.70898 15.0184 8.60781 14.9255 8.48203 14.883L8.31797 14.8272C8.01992 14.7289 7.91875 14.3703 8.11836 14.1366L8.43828 13.762C8.44651 13.7516 8.45204 13.7394 8.45442 13.7265C8.45679 13.7135 8.45595 13.7002 8.45195 13.6877L8.36172 13.4619L8.34531 13.438L7.98438 13.0634C7.84219 12.9173 7.58789 12.9917 7.55508 13.1909L7.55234 13.2122C7.5332 13.3291 7.42656 13.4167 7.30625 13.4167H6.23164C6.17148 13.4034 6.11133 13.3928 6.04844 13.3795L5.31289 13.0608C5.26094 13.0475 5.21172 13.0369 5.15977 13.0236L4.48438 12.9811C4.42148 12.9917 4.35859 12.9997 4.2957 13.0103L3.99219 13.1245C3.91016 13.1537 3.82266 13.1617 3.73789 13.1431L2.23672 12.8323C2.14648 12.8137 2.05078 12.8217 1.96602 12.8589L1.25781 13.1537C1.20586 13.175 1.19492 13.2414 1.23867 13.2786L1.42461 13.43C1.47656 13.4725 1.44648 13.5575 1.37812 13.5602L1.09922 13.5655C1.0582 13.5655 1.02539 13.6 1.02539 13.6398V13.677C1.02539 13.7169 1.0582 13.7487 1.09922 13.7514L1.33984 13.7541C1.42188 13.7567 1.44375 13.863 1.36992 13.8948L1.16211 13.9852C1.13203 13.9984 1.11563 14.0277 1.11836 14.0595L1.1375 14.2614C1.15664 14.4606 1.30977 14.62 1.51484 14.6519L1.6625 14.6758C1.73359 14.6864 1.75 14.7767 1.68984 14.8112L1.64336 14.8378C1.59414 14.867 1.59414 14.9361 1.64336 14.9627L1.66797 14.9759C1.68984 14.9892 1.71445 14.9892 1.73906 14.9813L3.00508 14.4261C3.16914 14.3544 3.36055 14.3836 3.4918 14.5031L4.69766 15.5736C4.78516 15.6506 4.83711 15.7595 4.84258 15.8737L4.88359 16.6919C4.88906 16.7848 4.92187 16.8725 4.98203 16.9442L6.16875 18.3786C6.19062 18.4052 6.22891 18.4131 6.26172 18.3972C6.30273 18.3759 6.31641 18.3255 6.28906 18.2883C6.28906 18.2883 7.03828 19.0427 7.10938 19.0745L7.71641 19.3667C7.7793 19.3959 7.84492 19.4119 7.91602 19.4119H8.2168C8.24687 19.4119 8.27422 19.4278 8.28516 19.4544L8.38633 19.6669C8.38633 19.6695 8.38906 19.6695 8.38906 19.6722C8.4082 19.7014 8.56406 19.9591 8.73086 19.9697C8.90859 19.9803 9.22852 19.9697 9.22852 19.9697C9.22852 19.9697 9.34336 19.967 9.34336 20.0892V20.2752C9.34336 20.3017 9.32969 20.3256 9.30508 20.3389C9.20664 20.392 8.95234 20.5488 8.95234 20.7267V21.1438C8.95234 21.1623 8.95781 21.1783 8.96875 21.1916C9.00156 21.2288 9.07266 21.3084 9.13281 21.3563C9.19844 21.4067 9.31328 21.5369 9.35977 21.5873C9.3707 21.6006 9.37617 21.6166 9.37617 21.6352V21.8742C9.37891 21.8822 9.37891 21.8928 9.38164 21.9008C9.39531 21.9327 9.43086 22.0123 9.49375 22.0416C9.53203 22.0602 9.62773 22.1345 9.71523 22.2089C9.82461 22.2992 9.88203 22.4347 9.87109 22.5755L9.81641 23.2555C9.81094 23.282 9.8082 23.3086 9.80273 23.3352L9.55937 24.2223C9.55391 24.2755 9.55117 24.3259 9.5457 24.3791L9.57031 24.743C9.57578 24.8067 9.57031 24.8705 9.54844 24.9316L9.4582 25.1786C9.43086 25.2583 9.42539 25.3433 9.44453 25.4256L9.55937 25.8852C9.57305 25.9383 9.60313 25.9861 9.64961 26.0206L9.76719 26.1109C9.81094 26.1455 9.87656 26.1933 9.92305 26.1614C10.15 26.01 10.232 25.3991 10.3305 25.1706C10.3797 25.0538 11.107 24.132 11.1043 24.0072L11.0988 23.8292C11.0988 23.7867 11.1316 23.7548 11.1754 23.7548H11.4078C11.4297 23.7548 11.4488 23.7469 11.4625 23.7309L12.0066 23.1519C12.0203 23.1386 12.0258 23.12 12.0258 23.1014V22.865C12.0258 22.8225 12.0613 22.7906 12.1051 22.7906C12.198 22.7959 12.3512 22.7959 12.4031 22.7534C12.4688 22.7003 12.6656 22.4772 12.7285 22.4081C12.7395 22.3948 12.7477 22.3789 12.7477 22.3603V21.9858C12.7477 21.8769 12.7887 21.7733 12.8652 21.6909L13.1387 21.3987C13.2152 21.3191 13.2344 21.1995 13.1797 21.0933C13.1523 21.0428 13.1059 21.0003 13.0512 20.9738Z" fill="white"/>
    <path d="M31.9237 12.5773H31.1581C31.1198 12.5773 31.087 12.5534 31.0761 12.5189L30.3433 12.3834C30.2804 12.3834 30.2175 12.3648 30.1628 12.3303L29.996 12.2214C29.9413 12.1869 29.8784 12.1683 29.8155 12.1683C29.8155 12.1683 28.1093 11.3209 25.8753 11.4033C25.0358 11.4351 24.2976 11.8416 24.2976 11.8416C24.2757 11.8495 24.2593 11.8708 24.2565 11.892L24.2483 11.9584C24.2429 11.9903 24.2155 12.0142 24.18 12.0142L23.8436 12.0062C23.8054 12.0062 23.7753 12.0355 23.7753 12.07L22.8347 12.1019C22.7526 12.1019 22.6761 12.1417 22.6296 12.2055L22.5448 12.325C22.4819 12.4126 21.6397 12.4419 21.6397 12.4419C21.6179 12.4326 21.5993 12.4174 21.5862 12.3981C21.5731 12.3787 21.566 12.3561 21.5659 12.333V12.2373C21.5659 12.2028 21.5796 12.1736 21.6069 12.1497L22.0554 11.7566C22.1046 11.714 22.1675 11.6848 22.2331 11.6769L22.512 11.6423C22.5283 11.6401 22.5439 11.6347 22.558 11.6265C22.5721 11.6183 22.5843 11.6074 22.594 11.5945L22.6269 11.5467C22.6733 11.483 22.6433 11.3953 22.5694 11.3687L22.5503 11.3608C22.5342 11.3555 22.5172 11.3534 22.5002 11.3548C22.4833 11.3562 22.4668 11.3609 22.4519 11.3687L22.2386 11.4883C22.2194 11.4989 22.2003 11.5042 22.1784 11.5042H21.9706C21.8831 11.5042 21.8011 11.5387 21.7382 11.5998L21.2378 12.0966C21.194 12.1391 21.164 12.1948 21.1503 12.2533L21.1038 12.4711L21.1366 12.5641L20.9397 12.8297L20.762 13.0023H20.5952V12.8297H20.3956L20.3382 13.0475C20.3108 13.1484 20.237 13.2281 20.1386 13.2653L19.9718 13.3264C19.8651 13.3662 19.7421 13.3476 19.6519 13.2759L19.4358 13.1059L20.0183 13.1351L20.0839 13.013C20.0839 13.013 19.4741 12.7394 19.1214 12.5455C18.8343 12.3887 18.4569 12.5216 18.3257 12.5773C18.2929 12.5906 18.2655 12.6092 18.2409 12.6305L16.9694 13.7434C16.8327 13.863 16.8245 14.0728 16.9558 14.2003L17.0761 14.3198L17.2456 14.1844C17.2921 14.1472 17.3577 14.1498 17.4015 14.1897L17.7187 14.4766H17.8007L18.1015 14.1312C18.137 14.0887 18.1397 14.0303 18.1042 13.9878L18.0659 13.9373C18.0514 13.9189 18.0428 13.8967 18.0413 13.8735C18.0399 13.8503 18.0456 13.8272 18.0577 13.8072L18.4761 13.1484C18.4979 13.1139 18.5444 13.1006 18.5827 13.1166L18.6565 13.1511C18.7003 13.1697 18.7167 13.2201 18.6948 13.2626L18.4077 13.7912C18.3722 13.855 18.3667 13.9294 18.3886 13.9958L18.4351 14.1366C18.4569 14.2375 18.4378 14.3437 18.3749 14.4234L18.1944 14.6598C18.1315 14.7422 18.0276 14.79 17.921 14.7873L17.3987 14.7687C17.3748 14.7675 17.3521 14.7575 17.3354 14.7407C17.3187 14.724 17.3091 14.7017 17.3085 14.6784V14.5961C17.3085 14.5456 17.2675 14.5058 17.2155 14.5058C17.169 14.5058 17.128 14.5403 17.1226 14.5881L17.1089 14.7342C17.1034 14.7794 17.0651 14.8166 17.0159 14.8166H16.9667C16.9421 14.8166 16.9202 14.8245 16.9038 14.8405L16.0562 15.6001L16.1792 15.7728V15.9561C16.1792 16.0172 16.1272 16.0676 16.0644 16.0676H15.7937C15.6487 16.0676 15.5339 16.1872 15.5421 16.328L15.5448 16.3625C15.553 16.4873 15.6569 16.5856 15.7882 16.5909L16.078 16.5989C16.1874 16.6016 16.2886 16.5537 16.3542 16.4661L16.562 16.1819C16.6222 16.0995 16.7206 16.0491 16.8272 16.0491H17.0269C17.0925 16.0491 17.1581 16.0676 17.2128 16.1048L17.5327 16.3226C17.5956 16.3651 17.6011 16.4555 17.5409 16.5033L17.3604 16.6547C17.3003 16.7051 17.2265 16.7317 17.1472 16.7317H16.0206C15.9194 16.7317 15.821 16.7795 15.7608 16.8592L14.8913 17.9881C14.8503 18.0439 14.8257 18.1103 14.8257 18.1767V18.9258C14.8257 18.9948 14.8476 19.0612 14.8913 19.117L15.1948 19.5075C15.2194 19.5394 15.2358 19.5792 15.2495 19.6164C15.2687 19.6801 15.3233 19.7731 15.4546 19.7731H16.8601C16.8601 19.7731 17.2128 19.7837 17.2128 20.0095C17.2128 20.0892 17.2101 20.1689 17.2073 20.238C17.2019 20.3601 17.2675 20.4691 17.3769 20.5301C17.4753 20.5859 17.5792 20.6816 17.5792 20.8356V21.25C17.5792 21.2819 17.5737 21.3137 17.5655 21.3456C17.5409 21.4226 17.4835 21.5794 17.4042 21.6962C17.3304 21.8025 17.4343 21.9619 17.5108 22.0548C17.5573 22.1133 17.5819 22.185 17.5819 22.2567V22.6684C17.5819 22.6684 17.6147 22.8198 17.7624 22.8836C17.9101 22.9473 17.962 22.9845 17.962 22.9845V23.1492C17.962 23.3245 18.1069 23.4653 18.2874 23.4653H18.714C18.714 23.4653 18.9054 23.4786 19.0312 23.2926C19.1569 23.1067 19.6054 22.432 19.6054 22.432C19.6054 22.432 19.6874 22.347 19.6054 22.1956C19.5233 22.0442 19.5616 21.9087 19.5616 21.9087L19.9526 21.6909C19.9526 21.6909 20.1358 21.6617 20.1358 21.4147V21.1464C20.1358 21.1039 20.1249 21.0614 20.1003 21.0242L20.0319 20.9126C19.9581 20.7905 19.9772 20.6391 20.0757 20.5355L20.8851 19.7014C20.8851 19.7014 21.0983 19.3933 21.0983 19.2366H20.4776C20.3628 19.2366 20.2589 19.1781 20.1987 19.0851L19.4905 17.9509C19.478 17.9311 19.4699 17.9089 19.4666 17.8859C19.4632 17.8629 19.4648 17.8394 19.4713 17.817C19.4777 17.7946 19.4888 17.7737 19.5038 17.7556C19.5189 17.7375 19.5376 17.7226 19.5589 17.7119C19.6409 17.6694 19.7421 17.6986 19.7886 17.773L20.4749 18.8594L20.4722 18.9576C20.4722 18.9895 20.4968 19.0134 20.5296 19.0134C20.6991 19.0134 21.1995 18.9948 21.4784 18.7584C21.6261 18.6336 21.7163 18.5061 21.771 18.3998C21.8366 18.2723 21.8038 18.1183 21.6944 18.0253L21.5194 17.8766L21.2925 17.9244L20.8905 17.5339C20.8304 17.4755 20.8468 17.3745 20.9233 17.3373C20.9447 17.327 20.9686 17.3227 20.9923 17.3251C21.016 17.3274 21.0386 17.3363 21.0573 17.3506L21.6862 17.8181C21.6862 17.8181 21.8147 17.9297 21.946 17.9297H22.3151C22.43 17.9297 22.5366 17.9881 22.594 18.0837L23.4171 19.4278C23.4171 19.4278 23.5401 19.5394 23.6112 19.5341C23.6823 19.5287 23.778 19.2392 23.778 19.2392C23.778 18.9709 23.912 18.7159 24.139 18.5619L24.4233 18.368C24.5519 18.2803 24.7241 18.2936 24.8362 18.3972L25.0112 18.5619V18.7372C25.0112 18.7664 25.0358 18.793 25.0687 18.793H25.1452L25.219 18.7212H25.3065V19.4278C25.3065 19.5075 25.3366 19.5845 25.394 19.643L25.9409 20.2114V20.0069C25.9409 19.9351 25.9163 19.8661 25.8698 19.8103L25.6128 19.4995C25.5663 19.4437 25.5417 19.3747 25.5417 19.303V19.0878C25.5417 19.0533 25.5854 19.0373 25.6101 19.0612L25.9409 19.3906L25.9491 19.5978C25.9519 19.6376 26.0011 19.6562 26.0284 19.627L26.496 19.1356C26.496 19.1356 26.6327 18.9709 26.496 18.8355C26.3976 18.7372 26.2608 18.6123 26.1733 18.5326C26.1624 18.5229 26.1538 18.511 26.1481 18.4977C26.1423 18.4844 26.1396 18.4701 26.1401 18.4557C26.1407 18.4413 26.1444 18.4272 26.1511 18.4144C26.1577 18.4015 26.1672 18.3902 26.1788 18.3812L26.269 18.3069L26.6354 18.3122C26.6354 18.3122 26.8761 18.3148 27.0565 18.1342C27.278 17.9137 27.6034 17.5658 27.6034 17.5658C27.6034 17.5658 27.669 17.3187 27.5159 17.1886C27.3601 17.0584 27.4284 16.8991 27.4284 16.8991L27.6198 16.737V16.6228H27.1194C27.1194 16.6228 27.1632 16.3651 27.5187 16.3492C27.5651 16.3466 27.6089 16.3466 27.6444 16.3439C27.6808 16.343 27.7171 16.3492 27.751 16.3622C27.7849 16.3752 27.8157 16.3946 27.8417 16.4194C27.8678 16.4442 27.8884 16.4737 27.9024 16.5064C27.9164 16.5391 27.9235 16.5741 27.9233 16.6095V17.0876L27.9972 17.0956C27.9972 17.0956 28.1366 17.1089 28.1886 16.9309C28.1886 16.9309 28.2815 16.9044 28.2815 16.7955V16.6653L28.1476 16.5086L28.3663 16.2376C28.4046 16.1898 28.4593 16.158 28.5194 16.1473L28.6315 16.1261C28.6981 16.1139 28.7571 16.0767 28.7956 16.0225L29.3015 15.2867C29.337 15.2336 29.3562 15.1725 29.3562 15.1114V14.9095C29.3562 14.8835 29.3455 14.8585 29.3265 14.84C29.3075 14.8216 29.2818 14.8112 29.255 14.8112H28.9597C28.9597 14.8112 28.8366 14.6705 29.0034 14.5748C29.121 14.5058 29.3507 14.3225 29.4792 14.2189C29.5366 14.1711 29.6104 14.1445 29.687 14.1445H30.2831C30.3515 14.1445 30.4171 14.1233 30.4718 14.0861L30.8628 13.8151C30.877 13.8048 30.8943 13.7992 30.912 13.7992C31.0815 13.7992 31.169 13.9958 31.0542 14.118L30.6495 14.5403C30.5948 14.5961 30.562 14.6731 30.562 14.7501L30.5565 15.0901C30.5565 15.1539 30.6085 15.207 30.6769 15.207H30.7753L31.3058 14.6811C31.3413 14.6466 31.3659 14.5987 31.3741 14.5509L31.3933 14.4394C31.4206 14.288 31.5546 14.1764 31.7132 14.1764H31.9456C32.0249 14.1764 32.1015 14.1498 32.1589 14.0994L32.4843 13.8231C32.5007 13.8098 32.5198 13.8019 32.5417 13.8019H32.7112C32.7604 13.8019 32.7987 13.7647 32.7987 13.7169V13.5575C32.7987 13.5336 32.8097 13.5123 32.8261 13.4964L32.9519 13.3822C33.053 13.2919 33.2007 13.2706 33.3237 13.3344L33.537 13.4433C33.589 13.4698 33.6546 13.4566 33.6929 13.4114L33.7968 13.2839C33.8085 13.2695 33.8167 13.2528 33.8209 13.235C33.8251 13.2171 33.8251 13.1986 33.8209 13.1807C33.8167 13.1629 33.8084 13.1462 33.7966 13.1318C33.7849 13.1175 33.77 13.1059 33.753 13.098L32.7222 12.6066C32.6675 12.588 31.9729 12.5773 31.9237 12.5773ZM17.4808 15.8923L17.489 15.8897C17.5079 15.8822 17.5288 15.8804 17.5488 15.8847C17.5689 15.889 17.5871 15.899 17.6011 15.9136L17.8991 16.2164L17.7132 16.3705L17.4397 16.0491C17.396 15.9959 17.4151 15.9162 17.4808 15.8923ZM19.2608 17.34H19.094C19.0722 17.34 19.0503 17.3373 19.0284 17.332C18.8479 17.2842 17.9456 17.0398 17.7788 16.9655C17.7603 16.9575 17.7441 16.9454 17.7314 16.93C17.7188 16.9147 17.7101 16.8967 17.7061 16.8775C17.702 16.8582 17.7028 16.8383 17.7083 16.8194C17.7139 16.8005 17.724 16.7832 17.7378 16.7689L17.962 16.5378C18.0386 16.4714 18.1589 16.4767 18.23 16.5484L18.4351 16.7583L18.6128 16.7264L18.5636 16.6016C18.5636 16.6016 18.5417 16.5431 18.5198 16.49C18.4979 16.4369 18.6183 16.3705 18.6183 16.3705C18.6183 16.3705 18.7413 16.3598 18.7413 16.5431C18.7413 16.7264 18.9409 16.8645 18.9409 16.8645H19.6218C19.6655 16.8645 19.6929 16.9097 19.671 16.9442L19.5507 17.1673C19.4933 17.2736 19.3812 17.34 19.2608 17.34ZM20.1167 16.3492H19.8843L19.7147 16.2217C19.6956 16.2084 19.6727 16.201 19.6491 16.2005H19.4276C19.3948 16.2005 19.362 16.2137 19.3374 16.235L19.1761 16.3731L19.0175 16.397C19.0027 16.3995 18.9876 16.399 18.973 16.3957C18.9584 16.3923 18.9447 16.386 18.9327 16.3773C18.9206 16.3687 18.9106 16.3577 18.9031 16.3451C18.8955 16.3325 18.8907 16.3185 18.889 16.3041L18.8671 16.1341C18.8616 16.0836 18.878 16.0358 18.9108 15.9986L19.1733 15.7117L19.2909 15.7037L19.2854 15.7542C19.2772 15.8153 19.3265 15.8684 19.3894 15.8684H19.4468C19.5042 15.8684 19.5562 15.8366 19.578 15.7861L19.6327 15.6719L19.8761 15.7117L19.8979 15.8817C19.9034 15.9189 19.9226 15.9534 19.9526 15.9773L20.2233 16.1978V16.2456C20.2233 16.3041 20.1769 16.3492 20.1167 16.3492ZM21.2925 16.5325V16.7264H20.8714L20.8358 16.5325C20.8304 16.5059 20.8358 16.4767 20.8522 16.4555L20.8741 16.4262C20.9042 16.3837 20.8987 16.3253 20.8577 16.2908L20.6608 16.1155V15.7941L20.9479 15.6745H21.0956C21.153 15.6745 21.2022 15.7117 21.2187 15.7648L21.2214 15.7728C21.2323 15.8126 21.2214 15.8525 21.194 15.8844C21.1782 15.9015 21.1677 15.9227 21.164 15.9455L21.1366 16.1128L21.369 16.32L21.2022 16.4262L21.2925 16.5325Z" fill="white"/>
    <path d="M27.4393 20.8011L26.444 20.6895C26.4185 20.6871 26.3936 20.6808 26.3701 20.6709L26.1295 20.5753C26.094 20.562 26.0584 20.5381 26.0311 20.5116L25.2299 19.6961C25.2189 19.6855 25.2055 19.6773 25.1909 19.6723C25.1762 19.6672 25.1606 19.6654 25.1451 19.6669C25.0686 19.6775 25.0358 19.7652 25.0877 19.8209L25.9299 20.7374C25.9655 20.7745 26.0092 20.8011 26.0584 20.817L26.5342 20.9552C26.5615 20.9631 26.5862 20.9658 26.6135 20.9658H27.4283L27.4393 20.8011Z" fill="white"/>
    <path d="M29.4191 21.3164L29.3781 21.428C29.2961 21.6511 29.0664 21.7919 28.823 21.7627C28.8064 21.7608 28.7906 21.755 28.7768 21.7457C28.7631 21.7365 28.7519 21.7241 28.7444 21.7096C28.7368 21.6951 28.733 21.6791 28.7334 21.6628C28.7337 21.6466 28.7382 21.6307 28.7465 21.6166L28.9516 21.25L28.4184 21.2686C28.3473 21.2712 28.2762 21.2872 28.2133 21.3164L28.0137 21.4067C27.9617 21.4306 27.9125 21.4625 27.8715 21.5023L27.4996 21.853C27.4559 21.8955 27.4039 21.93 27.3465 21.9539L27.0949 22.0628C26.9062 22.1452 26.7832 22.3258 26.7832 22.5277V22.5648C26.7832 22.6339 26.7969 22.7003 26.8242 22.7641L27.0211 23.213C27.0266 23.2236 27.0293 23.2316 27.032 23.2422C27.0648 23.3644 27.2016 23.4361 27.3246 23.3936L27.8277 23.2209C27.8988 23.197 27.9754 23.1864 28.0492 23.1944L28.6508 23.2475C28.8148 23.2608 28.9598 23.3484 29.0473 23.4839L29.0883 23.545C29.184 23.6938 29.3508 23.7841 29.534 23.7841H29.7773C29.9168 23.7841 30.0508 23.7309 30.1492 23.6353L30.4172 23.375C30.5156 23.2794 30.5703 23.1492 30.5703 23.0138V22.6738C30.5703 22.5303 30.5074 22.3948 30.4008 22.2992L29.8512 21.8105C29.7992 21.7653 29.7582 21.7095 29.7309 21.6484L29.5668 21.3031C29.5313 21.25 29.441 21.2527 29.4191 21.3164Z" fill="white"/>
    <path d="M27.0322 20.408L27.1826 20.145C27.21 20.0972 27.2209 20.0441 27.2182 19.9909L27.1935 19.712C27.1881 19.6456 27.1061 19.6111 27.0541 19.6563L26.633 20.0016C26.6218 20.0103 26.6087 20.0167 26.5947 20.0202L26.4061 20.0547C26.3568 20.0627 26.3268 20.1105 26.3377 20.1556L26.376 20.307C26.3877 20.3525 26.4116 20.3941 26.4452 20.4277C26.4788 20.4613 26.5209 20.4856 26.5674 20.4983L26.7123 20.5381C26.8381 20.5727 26.9693 20.5195 27.0322 20.408Z" fill="white"/>
    <path d="M29.3123 21.0269C29.3533 21.0269 29.3943 21.0189 29.4326 21.0003L29.7225 20.8648C29.7252 20.8648 29.7252 20.8648 29.7279 20.8675L29.9412 21.1225C29.9522 21.1358 29.9686 21.1437 29.9877 21.1437H30.1299C30.1791 21.1437 30.2064 21.0906 30.1764 21.0534L29.9549 20.7745L29.8592 20.6975L29.0771 20.3203H29.0744L28.8885 20.392H28.7463C28.7436 20.392 28.7436 20.392 28.7436 20.3894L28.6916 20.2247C28.688 20.214 28.681 20.2047 28.6717 20.1981C28.6624 20.1914 28.6512 20.1877 28.6396 20.1875H28.4482C28.4337 20.1875 28.4198 20.1931 28.4096 20.2031C28.3993 20.213 28.3936 20.2265 28.3936 20.2406V20.4027H28.5166V20.4505C28.5166 20.5089 28.5631 20.5594 28.6232 20.5673L28.9021 20.5992C28.9021 20.5992 28.9049 20.5992 28.9049 20.6019L29.0553 20.7825C29.1018 20.8383 29.0936 20.9737 29.0443 21.0295L29.0416 21.0322H29.3123V21.0269Z" fill="white"/>
    <path d="M29.4739 15.8764L29.3755 15.9614C29.2661 16.057 29.2005 16.1872 29.1841 16.3306C29.1704 16.4634 29.1103 16.5856 29.0146 16.6812C28.8751 16.8167 28.7001 16.9097 28.5114 16.9495L28.4732 16.9575L28.3173 17.0797C28.3173 17.0797 28.2735 17.2948 28.3173 17.3453C28.3364 17.3692 28.4185 17.3639 28.4431 17.3453C28.4759 17.3214 28.4786 17.1886 28.4786 17.1886L28.9735 17.0159C28.9735 17.0159 29.0966 17.1727 29.1568 17.1806C29.1841 17.1833 29.2443 17.1541 29.2607 17.1302C29.3263 17.0425 29.4001 16.7211 29.4001 16.7211C29.4247 16.6494 29.4411 16.5723 29.4493 16.498L29.4767 16.2164L29.6982 16.2031L29.7857 16.0305L29.556 16.0092L29.4739 15.8764Z" fill="white"/>
    <path d="M20.3491 22.4666C20.3491 22.4666 20.4229 22.6073 20.6007 22.6073C20.7784 22.6073 20.8522 22.4666 20.8522 22.4666V21.8105C20.8522 21.6192 20.6362 21.5023 20.4694 21.6033C20.3956 21.6484 20.3491 21.7255 20.3491 21.8105V22.4666Z" fill="white"/>
    <path d="M14.7544 11.0314L15.0498 10.8641L15.0552 10.8534C15.0653 10.8341 15.0701 10.8125 15.0692 10.7908C15.0682 10.7691 15.0615 10.748 15.0496 10.7296C15.0378 10.7112 15.0213 10.696 15.0017 10.6856C14.9821 10.6752 14.96 10.6699 14.9376 10.6702H14.265L14.1939 10.5958C14.1119 10.5055 13.9943 10.4524 13.8712 10.4497L12.8705 10.4099C12.8048 10.4205 12.7392 10.4338 12.6736 10.4444L12.0802 10.6861C12.031 10.7074 11.9791 10.718 11.9244 10.7206L10.9728 10.7658C10.9017 10.7684 10.8333 10.7897 10.7705 10.8216L10.2373 11.1138C10.2285 11.1186 10.2211 11.1255 10.2158 11.1338C10.2105 11.1422 10.2074 11.1517 10.2068 11.1614C10.2063 11.1712 10.2083 11.181 10.2127 11.1898C10.217 11.1987 10.2236 11.2063 10.2318 11.212C10.2728 11.2413 10.2591 11.305 10.2099 11.3156L9.79429 11.4166C9.75327 11.4272 9.73686 11.4724 9.756 11.5042L9.89546 11.7247C9.90366 11.738 9.92007 11.7486 9.93647 11.7513L10.683 11.8761C10.7978 11.8947 10.899 11.9558 10.9701 12.0461L11.4841 12.7022L11.6345 12.9014C11.6892 12.9731 11.681 13.0714 11.6208 13.1352L11.506 13.252C11.4513 13.3078 11.4404 13.3902 11.4759 13.4592L11.8505 14.187C11.8833 14.2534 11.9462 14.3013 12.0173 14.3225C12.2498 14.3889 12.4958 14.2667 12.5779 14.0436L12.6763 13.7727C12.69 13.7328 12.7201 13.6983 12.7583 13.6744L13.1767 13.3291C13.2287 13.2866 13.2888 13.2574 13.3517 13.2388L14.008 13.0661C14.1474 13.0289 14.2595 12.9333 14.3115 12.8031L14.6205 12.0594C14.6669 11.9505 14.6642 11.8283 14.6177 11.7194L14.5576 11.5813C14.4728 11.382 14.5548 11.1456 14.7544 11.0314Z" fill="white"/>
    <path d="M9.28595 11.6769L9.41173 11.4617C9.45548 11.3873 9.51564 11.3289 9.5922 11.289L10.6258 10.7339L10.5082 10.6037L9.33517 10.5347C9.30236 10.532 9.26681 10.5347 9.234 10.54L8.09103 10.718C8.02267 10.7286 7.95705 10.7525 7.89962 10.7923C7.66994 10.9437 7.62892 11.2572 7.80939 11.4617L8.06642 11.7512C8.15392 11.8522 8.28517 11.908 8.41916 11.908H8.87853C9.04806 11.908 9.20392 11.8203 9.28595 11.6769Z" fill="white"/>
    <path d="M10.5902 13.7036L10.6968 13.5841C10.7242 13.5522 10.7187 13.5044 10.6832 13.4831L10.3496 13.2547L9.18474 12.418C9.13552 12.3835 9.0781 12.3649 9.01794 12.3649H8.55856C8.48474 12.3649 8.41638 12.3914 8.36442 12.4419L8.12106 12.6703C8.10778 12.682 8.09977 12.6983 8.09874 12.7157C8.09772 12.7331 8.10377 12.7502 8.1156 12.7633L8.25231 12.9306C8.26599 12.9492 8.2906 12.9599 8.3152 12.9572L8.44645 12.9466C8.48747 12.9439 8.52028 12.9731 8.52302 13.0103L8.52849 13.0847C8.52849 13.0953 8.52849 13.106 8.52302 13.1166L8.46286 13.26C8.45192 13.2839 8.45739 13.3131 8.4738 13.3317L8.61872 13.4964C8.63239 13.5124 8.65427 13.523 8.67614 13.5203L8.8156 13.515C8.85388 13.5124 8.88396 13.4831 8.88396 13.446V13.1564C8.88396 13.1192 8.91403 13.09 8.94958 13.0874L9.14372 13.0741C9.16013 13.0741 9.17927 13.0767 9.19294 13.0874L9.54841 13.3503C9.57575 13.3716 9.58395 13.4061 9.57028 13.4353L9.4527 13.6638C9.44177 13.685 9.41989 13.701 9.39255 13.701L9.28044 13.7089C9.24763 13.7116 9.22302 13.7328 9.21481 13.7621C9.20661 13.8046 9.23669 13.8444 9.28044 13.8471L9.52106 13.8657C9.57028 13.8683 9.6195 13.8869 9.66052 13.9135L10.0843 14.2003C10.1117 14.2189 10.1472 14.2163 10.1718 14.195L10.3058 14.0861C10.3168 14.0781 10.325 14.0649 10.3277 14.0516L10.3715 13.8869C10.3769 13.8683 10.3742 13.8471 10.3633 13.8311L10.2183 13.6133L10.2648 13.6053C10.2812 13.6027 10.3004 13.6053 10.314 13.6133L10.5 13.7196C10.5273 13.7355 10.5656 13.7302 10.5902 13.7036Z" fill="white"/>
    <path d="M5.28832 12.8855V12.6491H5.43325L5.64653 12.9386C5.67387 12.9731 5.70668 13.0024 5.7477 13.0236L6.02661 13.1591C6.06489 13.1777 6.10864 13.1883 6.15239 13.1883H7.01645V12.9094L6.69653 12.8005L6.32739 12.6092C6.27817 12.6092 6.23168 12.596 6.19067 12.5747L5.60004 12.248C5.55845 12.2248 5.51125 12.2129 5.46332 12.2135H5.10785C4.98754 12.2135 4.8809 12.2878 4.84262 12.3994L4.81254 12.4924C4.77973 12.588 4.80707 12.6969 4.8809 12.7686L5.00668 12.8908H5.28832V12.8855Z" fill="white"/>
    <path d="M6.51611 12.4233L6.74307 12.3091C6.78135 12.2905 6.8251 12.2798 6.87158 12.2798H6.99463C7.10127 12.2798 7.19971 12.3383 7.24619 12.4339L7.33643 12.6145V12.8005H6.92627V12.5641L6.754 12.4791L6.54893 12.4844L6.51611 12.4233Z" fill="white"/>
    <path d="M7.30078 12.2798L7.50586 12.6039L7.66719 12.6969H7.90508L8.14297 12.4525L7.9625 12.2241L7.50039 12.2798H7.30078Z" fill="white"/>
    <path d="M5.97461 11.7858L6.29727 11.8974C6.31914 11.9053 6.33828 11.9133 6.35742 11.9266L6.58164 12.07C6.61992 12.0939 6.66094 12.1099 6.70742 12.1125L7.11484 12.1524L7.06563 11.908L6.57891 11.6477C6.53789 11.6264 6.49141 11.6132 6.44492 11.6132H6.19609L5.97461 11.7858Z" fill="white"/>
    <path d="M16.3188 13.7833L16.4364 13.9639C16.4474 13.9798 16.4474 14.0037 16.4337 14.0197L16.3435 14.1392C16.3353 14.1525 16.3298 14.1684 16.3353 14.1817L16.3708 14.3012C16.3735 14.3119 16.379 14.3198 16.3872 14.3252L16.5759 14.4659C16.7044 14.5616 16.7208 14.7448 16.6114 14.8617L16.6087 14.8644C16.5567 14.9202 16.4802 14.9547 16.4009 14.9547H16.1767C16.1438 14.9547 16.1192 14.9255 16.1274 14.8936L16.1849 14.6758C16.1876 14.6625 16.1985 14.6492 16.2122 14.6439L16.3134 14.5961C16.3325 14.5881 16.3435 14.5669 16.3407 14.5456L16.3353 14.4872C16.3337 14.4769 16.329 14.4673 16.3217 14.4596C16.3143 14.452 16.3047 14.4468 16.2942 14.4447L16.1493 14.4155C16.1385 14.4133 16.1272 14.4147 16.1172 14.4196C16.1073 14.4244 16.0994 14.4323 16.0946 14.442L16.0618 14.5111C16.0618 14.5138 16.0591 14.5164 16.0591 14.5191L15.988 14.7528C15.9825 14.7741 15.9606 14.7873 15.9388 14.7873L15.7118 14.782C15.6988 14.782 15.6862 14.777 15.677 14.768C15.6678 14.7591 15.6626 14.7469 15.6626 14.7342V14.4845C15.6626 14.458 15.6845 14.4367 15.7118 14.4367L15.8294 14.4341C15.8458 14.4341 15.8595 14.4261 15.8704 14.4128L15.9798 14.2587C15.9853 14.2508 15.988 14.2402 15.988 14.2295V13.9958C15.988 13.9798 15.9962 13.9666 16.0071 13.9586L16.245 13.7727C16.2669 13.7541 16.3024 13.7594 16.3188 13.7833Z" fill="white"/>
    <path d="M13.7482 13.4061H13.565L13.4502 13.5363L13.7646 13.7753C13.8221 13.8205 13.8959 13.8391 13.9697 13.8311L14.3279 13.7886V13.5628L14.2596 13.4034L13.8877 13.4964L13.7482 13.4061Z" fill="white"/>
    <path d="M17.1993 11.4963H17.6724C17.7298 11.4963 17.7845 11.5122 17.831 11.5441L18.3204 11.8761L18.2548 11.9717L17.8419 11.7672L17.6724 12.0674H17.4892L17.0845 11.5733L17.1993 11.4963Z" fill="white"/>
    <path d="M18.0662 11.143H18.6787L18.8346 11.2572L18.6787 11.4139H18.3506C18.2904 11.4139 18.233 11.3953 18.1865 11.3608L18.0088 11.2333L18.0662 11.143Z" fill="white"/>
    <path d="M6.85781 11.3023L7.2625 11.1562L7.50039 11.2758L7.61797 11.4909L7.47031 11.5175L7.02734 11.653L6.4668 11.398L6.85781 11.3023Z" fill="white"/>
    <path d="M7.85059 11.9478H8.02559L8.11582 12.0434H9.05098L9.12754 12.1523L9.07832 12.2533L8.20879 12.2798L8.11035 12.1736L7.96543 12.1523L7.94355 12.0647L7.85059 12.0328V11.9478Z" fill="white"/>
    <path d="M7.16943 11.9638L7.23779 12.1524L7.41553 12.1656L7.56045 12.0036L7.49756 11.9478L7.23779 11.9266L7.16943 11.9638Z" fill="white"/>
    <path d="M7.65098 11.7327L7.61816 11.8389L7.75488 11.8814L7.85059 11.8071H7.91074V11.7593L7.79316 11.7114L7.72207 11.6849L7.65098 11.7327Z" fill="white"/>
    <path d="M8.73613 18.5513L8.90566 18.4796H9.35957L9.7123 18.7372C9.7123 18.7372 9.8791 18.7585 9.8791 18.801C9.8791 18.8435 9.7123 18.8647 9.7123 18.8647H9.46895L9.12715 18.6389L8.9166 18.6708L8.73613 18.5991C8.71426 18.5938 8.71426 18.5619 8.73613 18.5513Z" fill="white"/>
    <path d="M9.9123 18.9577C9.89316 18.9152 10.0463 18.8275 10.0463 18.8275C10.0463 18.8275 10.2924 18.7664 10.3279 18.8275C10.3471 18.862 10.2404 18.9577 10.2404 18.9577C10.2404 18.9577 9.94511 19.032 9.9123 18.9577Z" fill="white"/>
    <path d="M29.4819 24.063H30.0562L29.769 24.3871H29.6351L29.4819 24.063Z" fill="white"/>
    </svg>
