<svg width="25" height="25" viewBox="0 0 25 25" fill="none" xmlns="http://www.w3.org/2000/svg">
    <path d="M25 25H0C0 24.235 0.459798 23.5229 1.37939 22.8638C2.29899 22.2046 3.54818 21.6553 5.12695 21.2158L3.125 7.8125C3.125 7.32422 3.79639 6.43717 5.13916 5.15137C6.48193 3.86556 7.91829 2.68555 9.44824 1.61133C10.9782 0.537109 11.9954 0 12.5 0C13.0046 0 14.0218 0.537109 15.5518 1.61133C17.0817 2.68555 18.5181 3.86556 19.8608 5.15137C21.2036 6.43717 21.875 7.32422 21.875 7.8125L19.873 21.2158C21.4518 21.6553 22.701 22.2046 23.6206 22.8638C24.5402 23.5229 25 24.235 25 25Z" fill="white"/>
    </svg>
