<svg width="25" height="25" viewBox="0 0 25 25" fill="none" xmlns="http://www.w3.org/2000/svg">
    <path d="M12.5 0C5.59644 0 0 5.59644 0 12.5C0 19.4036 5.59644 25 12.5 25C19.4036 25 25 19.4036 25 12.5C25 5.59644 19.4036 0 12.5 0ZM8.17108 7.14265H16.8274C17.41 7.1821 17.8496 7.60602 17.8574 8.14363V16.8289C17.8161 17.4343 17.3756 17.85 16.8274 17.8574H8.17108C7.56608 17.8161 7.15 17.3767 7.14265 16.8289V8.14363C7.17602 7.56381 7.65871 7.14952 8.17108 7.14265ZM9.62829 9.11408C9.31765 9.12179 9.11733 9.36088 9.11406 9.62983V15.3427C9.12213 15.6528 9.36006 15.8552 9.62829 15.8585H15.3702C15.681 15.8504 15.8827 15.6115 15.8859 15.3427V9.62981C15.8783 9.31846 15.6398 9.11727 15.3702 9.11406H9.62829V9.11408Z" fill="white"/>
    </svg>
