<svg width="25" height="25" viewBox="0 0 25 25" fill="none" xmlns="http://www.w3.org/2000/svg">
    <path d="M23.75 11.25H23.5375C22.2212 11.25 21.09 10.4137 20.5912 9.195L20.565 9.13375C20.055 7.9125 20.2537 6.5125 21.19 5.57625L21.3387 5.4275C21.4548 5.31144 21.5469 5.17367 21.6097 5.02203C21.6725 4.8704 21.7048 4.70788 21.7048 4.54375C21.7048 4.37962 21.6725 4.2171 21.6097 4.06547C21.5469 3.91383 21.4548 3.77606 21.3387 3.66C21.2227 3.54394 21.0849 3.45188 20.9333 3.38908C20.7816 3.32627 20.6191 3.29394 20.455 3.29394C20.2909 3.29394 20.1284 3.32627 19.9767 3.38908C19.8251 3.45188 19.6873 3.54394 19.5712 3.66L19.4225 3.80875C18.4862 4.745 17.0863 4.94375 15.865 4.43375L15.8038 4.4075C14.5863 3.91 13.75 2.7725 13.75 1.45625V1.355C13.75 0.55875 13.1912 0 12.5 0C11.8088 0 11.25 0.55875 11.25 1.25V1.295C11.25 2.665 10.425 3.9 9.15875 4.42375L9.15125 4.4275C8.53225 4.68372 7.85118 4.75064 7.19415 4.61982C6.53713 4.48899 5.93364 4.16628 5.46 3.6925L5.42875 3.66125C5.31269 3.54519 5.17492 3.45313 5.02328 3.39032C4.87165 3.32752 4.70913 3.29519 4.545 3.29519C4.38087 3.29519 4.21835 3.32752 4.06672 3.39032C3.91508 3.45313 3.77731 3.54519 3.66125 3.66125C3.54519 3.77731 3.45313 3.91508 3.39032 4.06672C3.32752 4.21835 3.29519 4.38087 3.29519 4.545C3.29519 4.70913 3.32752 4.87165 3.39032 5.02328C3.45313 5.17492 3.54519 5.31269 3.66125 5.42875L3.70625 5.47375C4.17585 5.94375 4.49568 6.54234 4.62538 7.19395C4.75508 7.84557 4.68883 8.521 4.435 9.135L4.40125 9.215C4.15167 9.81719 3.72922 10.3319 3.18725 10.6941C2.64528 11.0563 2.00811 11.2498 1.35625 11.25H1.355C0.55875 11.25 0 11.8088 0 12.5C0 13.1912 0.55875 13.75 1.25 13.75H1.335C1.99321 13.7498 2.63667 13.945 3.18386 14.3109C3.73104 14.6767 4.15734 15.1967 4.40875 15.805L4.435 15.8663C4.68883 16.4802 4.75508 17.1557 4.62538 17.8073C4.49568 18.4589 4.17585 19.0575 3.70625 19.5275L3.66125 19.5725C3.42686 19.8069 3.29519 20.1248 3.29519 20.4563C3.29519 20.7877 3.42686 21.1056 3.66125 21.34C3.89563 21.5744 4.21353 21.7061 4.545 21.7061C4.87647 21.7061 5.19437 21.5744 5.42875 21.34L5.47375 21.295C5.94366 20.8253 6.54225 20.5053 7.19391 20.3756C7.84556 20.2459 8.52103 20.3123 9.135 20.5662L9.31375 20.6413C9.88705 20.878 10.3771 21.2796 10.7219 21.7952C11.0666 22.3109 11.2504 22.9173 11.25 23.5375V23.6438C11.25 24.4413 11.8088 25 12.5 25C13.1912 25 13.75 24.44 13.75 23.75V23.5375C13.75 22.2687 14.5138 21.125 15.6875 20.64L16.0025 20.51C16.576 20.2722 17.2071 20.2099 17.816 20.3312C18.4248 20.4525 18.984 20.7518 19.4225 21.1912L19.5712 21.34C19.6873 21.4561 19.8251 21.5481 19.9767 21.6109C20.1284 21.6737 20.2909 21.7061 20.455 21.7061C20.6191 21.7061 20.7816 21.6737 20.9333 21.6109C21.0849 21.5481 21.2227 21.4561 21.3387 21.34C21.4548 21.2239 21.5469 21.0862 21.6097 20.9345C21.6725 20.7829 21.7048 20.6204 21.7048 20.4563C21.7048 20.2921 21.6725 20.1296 21.6097 19.978C21.5469 19.8263 21.4548 19.6886 21.3387 19.5725L21.19 19.4237C20.2537 18.4875 20.055 17.0875 20.565 15.8663L20.5912 15.805C21.09 14.5862 22.2275 13.75 23.5437 13.75H23.6438C24.4413 13.75 25 13.1912 25 12.5C25 11.8088 24.4412 11.25 23.75 11.25ZM7.5 13.75C7.16848 13.75 6.85054 13.6183 6.61612 13.3839C6.3817 13.1495 6.25 12.8315 6.25 12.5C6.25 12.1685 6.3817 11.8505 6.61612 11.6161C6.85054 11.3817 7.16848 11.25 7.5 11.25C7.83152 11.25 8.14946 11.3817 8.38388 11.6161C8.6183 11.8505 8.75 12.1685 8.75 12.5C8.75 12.8315 8.6183 13.1495 8.38388 13.3839C8.14946 13.6183 7.83152 13.75 7.5 13.75ZM13.75 18.125C13.4185 18.125 13.1005 17.9933 12.8661 17.7589C12.6317 17.5245 12.5 17.2065 12.5 16.875C12.5 16.5435 12.6317 16.2255 12.8661 15.9911C13.1005 15.7567 13.4185 15.625 13.75 15.625C14.0815 15.625 14.3995 15.7567 14.6339 15.9911C14.8683 16.2255 15 16.5435 15 16.875C15 17.2065 14.8683 17.5245 14.6339 17.7589C14.3995 17.9933 14.0815 18.125 13.75 18.125ZM15 12.5C14.6716 12.4999 14.3465 12.4352 14.0431 12.3094C13.7397 12.1837 13.4641 11.9994 13.232 11.7671C12.9998 11.5349 12.8157 11.2592 12.6901 10.9557C12.5645 10.6523 12.4999 10.3271 12.5 9.99875C12.5001 9.67036 12.5648 9.34521 12.6906 9.04185C12.8163 8.73849 13.0006 8.46287 13.2329 8.23072C13.4651 7.99858 13.7408 7.81445 14.0443 7.68886C14.3477 7.56327 14.6729 7.49867 15.0013 7.49875C15.6645 7.49892 16.3004 7.76253 16.7693 8.23161C17.2381 8.70068 17.5014 9.33679 17.5012 10C17.5011 10.6632 17.2375 11.2992 16.7684 11.768C16.2993 12.2369 15.6632 12.5002 15 12.5Z" fill="white"/>
    </svg>
