<svg width="50" height="50" viewBox="0 0 50 50" fill="none" xmlns="http://www.w3.org/2000/svg">
    <path d="M40.7455 5.60626C40.7776 6.12956 40.6532 6.65057 40.3881 7.1029C40.1231 7.55524 39.7293 7.91844 39.2571 8.14622C38.7849 8.37401 38.2556 8.45607 37.7366 8.38195C37.2176 8.30784 36.7323 8.0809 36.3428 7.73005C35.9532 7.37921 35.6768 6.92033 35.549 6.41188C35.4211 5.90343 35.4475 5.36842 35.6248 4.87502C35.802 4.38161 36.1222 3.95215 36.5444 3.64132C36.9666 3.3305 37.4717 3.1524 37.9955 3.1297C38.3389 3.11074 38.6827 3.15986 39.0071 3.27423C39.3314 3.3886 39.63 3.56597 39.8855 3.79612C40.1411 4.02628 40.3487 4.30469 40.4962 4.61534C40.6438 4.92599 40.7286 5.26275 40.7455 5.60626Z" fill="#FFFCFC" />
    <path d="M25.3437 36.111C18.3328 36.111 12.1719 33.5953 8.98438 29.8797C10.2205 33.2222 12.451 36.1059 15.3756 38.1424C18.3001 40.179 21.7784 41.2707 25.3422 41.2707C28.906 41.2707 32.3842 40.179 35.3088 38.1424C38.2334 36.1059 40.4638 33.2222 41.7 29.8797C38.5219 33.5953 32.3844 36.111 25.3422 36.111H25.3437Z" fill="#FFFCFC" />
    <path d="M25.3437 11.95C32.3531 11.95 38.5156 14.4656 41.7 18.1813C40.4638 14.8387 38.2334 11.9551 35.3088 9.91855C32.3842 7.88198 28.906 6.79022 25.3422 6.79022C21.7784 6.79022 18.3001 7.88198 15.3756 9.91855C12.451 11.9551 10.2205 14.8387 8.98438 18.1813C12.1719 14.4594 18.3016 11.95 25.3437 11.95Z" fill="#FFFCFC" />
    <path d="M15.6923 43.3422C15.7353 44.1587 15.473 44.9619 14.9565 45.5957C14.4401 46.2296 13.7063 46.6486 12.898 46.7715C12.0897 46.8943 11.2646 46.7121 10.5831 46.2604C9.90167 45.8086 9.41261 45.1195 9.21105 44.3271C9.00948 43.5348 9.10982 42.6958 9.49255 41.9733C9.87527 41.2508 10.513 40.6965 11.2818 40.4181C12.0506 40.1398 12.8954 40.1573 13.6519 40.4673C14.4085 40.7773 15.0227 41.3576 15.3751 42.0953C15.561 42.4863 15.6688 42.9099 15.6923 43.3422Z" fill="#FFFCFC" />
    <path d="M9.78109 11.1031C9.40352 11.1133 9.03137 11.0116 8.71143 10.8108C8.39149 10.6101 8.13803 10.3192 7.98293 9.97484C7.82783 9.63044 7.778 9.24788 7.8397 8.87524C7.90141 8.50261 8.07191 8.15653 8.32975 7.88052C8.58759 7.6045 8.92127 7.41088 9.28885 7.32397C9.65643 7.23707 10.0415 7.26077 10.3956 7.3921C10.7498 7.52343 11.0572 7.75652 11.2792 8.06207C11.5013 8.36762 11.6281 8.732 11.6436 9.10939C11.658 9.61994 11.4705 10.1156 11.1219 10.4888C10.7732 10.862 10.2914 11.0828 9.78109 11.1031Z" fill="#FFFCFC" />
</svg>