<svg width="25" height="25" viewBox="0 0 25 25" fill="none" xmlns="http://www.w3.org/2000/svg">
    <path d="M15.625 14.0625H17.1875V15.625H15.625V14.0625Z" fill="white"/>
    <path d="M21.875 12.5H23.4375V14.0625H21.875V12.5Z" fill="white"/>
    <path d="M10.9375 4.6875H12.5V6.25H10.9375V4.6875Z" fill="white"/>
    <path d="M12.5 17.1875H9.375V12.5C9.37459 12.0857 9.20983 11.6885 8.9169 11.3956C8.62396 11.1027 8.22677 10.9379 7.8125 10.9375H3.125C2.71073 10.9379 2.31354 11.1027 2.0206 11.3956C1.72767 11.6885 1.56291 12.0857 1.5625 12.5V17.1875C1.56291 17.6018 1.72767 17.999 2.0206 18.2919C2.31354 18.5848 2.71073 18.7496 3.125 18.75H7.8125V21.875C7.81291 22.2893 7.97767 22.6865 8.2706 22.9794C8.56354 23.2723 8.96073 23.4371 9.375 23.4375H12.5C12.9143 23.4371 13.3115 23.2723 13.6044 22.9794C13.8973 22.6865 14.0621 22.2893 14.0625 21.875V18.75C14.0621 18.3357 13.8973 17.9385 13.6044 17.6456C13.3115 17.3527 12.9143 17.1879 12.5 17.1875ZM3.125 17.1875V12.5H7.8125V17.1875H3.125ZM9.375 21.875V18.75H12.5V21.875H9.375Z" fill="white"/>
    <path d="M21.875 23.4375H18.75C18.3357 23.4371 17.9385 23.2723 17.6456 22.9794C17.3527 22.6865 17.1879 22.2893 17.1875 21.875V18.75C17.1879 18.3357 17.3527 17.9385 17.6456 17.6456C17.9385 17.3527 18.3357 17.1879 18.75 17.1875H21.875C22.2893 17.1879 22.6865 17.3527 22.9794 17.6456C23.2723 17.9385 23.4371 18.3357 23.4375 18.75V21.875C23.4371 22.2893 23.2723 22.6865 22.9794 22.9794C22.6865 23.2723 22.2893 23.4371 21.875 23.4375ZM18.75 18.75V21.875H21.875V18.75H18.75Z" fill="white"/>
    <path d="M21.875 1.5625H17.1875C16.7732 1.56291 16.376 1.72767 16.0831 2.0206C15.7902 2.31354 15.6254 2.71073 15.625 3.125V7.8125H14.0625C13.6482 7.81291 13.251 7.97767 12.9581 8.2706C12.6652 8.56354 12.5004 8.96073 12.5 9.375V10.9375C12.5004 11.3518 12.6652 11.749 12.9581 12.0419C13.251 12.3348 13.6482 12.4996 14.0625 12.5H15.625C16.0393 12.4996 16.4365 12.3348 16.7294 12.0419C17.0223 11.749 17.1871 11.3518 17.1875 10.9375V9.375H21.875C22.2893 9.37459 22.6865 9.20983 22.9794 8.9169C23.2723 8.62396 23.4371 8.22677 23.4375 7.8125V3.125C23.4371 2.71073 23.2723 2.31354 22.9794 2.0206C22.6865 1.72767 22.2893 1.56291 21.875 1.5625ZM14.0625 10.9375V9.375H15.625V10.9375H14.0625ZM17.1875 7.8125V3.125H21.875V7.8125H17.1875Z" fill="white"/>
    <path d="M6.25 7.8125H3.125C2.71073 7.81209 2.31354 7.64733 2.0206 7.3544C1.72767 7.06146 1.56291 6.66427 1.5625 6.25V3.125C1.56291 2.71073 1.72767 2.31354 2.0206 2.0206C2.31354 1.72767 2.71073 1.56291 3.125 1.5625H6.25C6.66427 1.56291 7.06146 1.72767 7.3544 2.0206C7.64733 2.31354 7.81209 2.71073 7.8125 3.125V6.25C7.81209 6.66427 7.64733 7.06146 7.3544 7.3544C7.06146 7.64733 6.66427 7.81209 6.25 7.8125ZM3.125 3.125V6.25H6.25V3.125H3.125Z" fill="white"/>
    </svg>
