<svg width="42" height="42" viewBox="0 0 42 42" fill="none" xmlns="http://www.w3.org/2000/svg">
    <path d="M20.8333 0C9.32708 0 0 9.32708 0 20.8333C0 32.3396 9.32708 41.6667 20.8333 41.6667C32.3396 41.6667 41.6667 32.3396 41.6667 20.8333C41.6667 9.32708 32.3396 0 20.8333 0ZM20.8333 38.5417C18.5077 38.5415 16.2049 38.0833 14.0563 37.1932C11.9078 36.3031 9.95559 34.9985 8.31122 33.354C6.66685 31.7094 5.3625 29.7571 4.47265 27.6084C3.58279 25.4598 3.12486 23.1569 3.125 20.8312C3.12514 18.5056 3.58334 16.2028 4.47344 14.0542C5.36355 11.9057 6.66813 9.95351 8.31269 8.30914C9.95726 6.66476 11.9096 5.36042 14.0583 4.47056C16.2069 3.58071 18.5098 3.12278 20.8354 3.12292C25.5322 3.12319 30.0366 4.98926 33.3575 8.31061C36.6785 11.632 38.544 16.1365 38.5437 20.8333C38.5435 25.5302 36.6774 30.0345 33.3561 33.3554C30.0347 36.6764 25.5302 38.5419 20.8333 38.5417ZM20.8333 21.875C14.5042 21.875 9.375 25.475 9.375 29.1667C9.375 32.8583 14.5042 36.4583 20.8333 36.4583C27.1625 36.4583 32.2917 32.8583 32.2917 29.1667C32.2917 25.475 27.1625 21.875 20.8333 21.875ZM20.8333 20.8333C22.4909 20.8333 24.0806 20.1749 25.2528 19.0028C26.4249 17.8306 27.0833 16.2409 27.0833 14.5833C27.0833 12.9257 26.4249 11.336 25.2528 10.1639C24.0806 8.99181 22.4909 8.33333 20.8333 8.33333C19.1757 8.33333 17.586 8.99181 16.4139 10.1639C15.2418 11.336 14.5833 12.9257 14.5833 14.5833C14.5833 16.2409 15.2418 17.8306 16.4139 19.0028C17.586 20.1749 19.1757 20.8333 20.8333 20.8333V20.8333Z" fill="white"/>
    </svg>
